PathFileType	4	(X/Y/Z)	C:\Users\Basilio\Documents\Thesis Gigler\squatting_fais\c3dfiles\038\SLS_front_pre4\markers_experimental.trc
DataRate	CameraRate	NumFrames	NumMarkers	Units	OrigDataRate	OrigDataStartFrame	OrigNumFrames
200.000000	200.000000	4	61	mm	200.000000	176	1408
Frame#	Time	FHD			LBHD			RBHD			C7			T10			CLAV			LSHO			LUUPA			LMUPA			LDUPA			LLEP			LMEP			LRAD			LUL			LRFIN			RSHO			RUPA1			RMUPA			RDUPA			RLEP			RMEP			RRAD			RUL			RUFIN			LASI			RASI			USACR			LSACR			RSACR			LTHI1			LTHI2			LTHI3			LTHI4			LLFC			LMFC			LTIB1			LTIB2			LTIB3			LTIB4			LLMAL			LMMAL			LHEE			LMT1			LMT2			LMT5			RTHI			RTHI2			RTHI3			RTHI4			RLFC			RMFC			RTIB1			RTIB2			RTIB3			RTIB4			RLMAL			RMMAL			RHEE			RMT1			RMT2			RMT5			
		X1	Y1	Z1	X2	Y2	Z2	X3	Y3	Z3	X4	Y4	Z4	X5	Y5	Z5	X6	Y6	Z6	X7	Y7	Z7	X8	Y8	Z8	X9	Y9	Z9	X10	Y10	Z10	X11	Y11	Z11	X12	Y12	Z12	X13	Y13	Z13	X14	Y14	Z14	X15	Y15	Z15	X16	Y16	Z16	X17	Y17	Z17	X18	Y18	Z18	X19	Y19	Z19	X20	Y20	Z20	X21	Y21	Z21	X22	Y22	Z22	X23	Y23	Z23	X24	Y24	Z24	X25	Y25	Z25	X26	Y26	Z26	X27	Y27	Z27	X28	Y28	Z28	X29	Y29	Z29	X30	Y30	Z30	X31	Y31	Z31	X32	Y32	Z32	X33	Y33	Z33	X34	Y34	Z34	X35	Y35	Z35	X36	Y36	Z36	X37	Y37	Z37	X38	Y38	Z38	X39	Y39	Z39	X40	Y40	Z40	X41	Y41	Z41	X42	Y42	Z42	X43	Y43	Z43	X44	Y44	Z44	X45	Y45	Z45	X46	Y46	Z46	X47	Y47	Z47	X48	Y48	Z48	X49	Y49	Z49	X50	Y50	Z50	X51	Y51	Z51	X52	Y52	Z52	X53	Y53	Z53	X54	Y54	Z54	X55	Y55	Z55	X56	Y56	Z56	X57	Y57	Z57	X58	Y58	Z58	X59	Y59	Z59	X60	Y60	Z60	X61	Y61	Z61	

177	0.88	-238.3607635498047	1770.282592773438	-986.159606933594	-391.5009765625001	1713.961791992188	-1048.615356445313	-384.2203979492189	1699.425903320313	-904.0086059570315	-425.546844482422	1521.003662109375	-977.016784667969	-366.9586486816407	1245.086791992188	-966.5213623046877	-281.5674743652344	1523.388061523438	-986.5940551757815	-345.7490234375001	1548.93798828125	-1130.491821289063	-171.9748687744141	1493.8837890625	-1252.96044921875	-146.6061401367188	1529.027587890625	-1224.970336914063	-103.0386962890625	1504.159301757813	-1257.246948242188	-41.71948623657227	1508.83544921875	-1255.18798828125	-30.67276191711426	1435.447387695313	-1231.819580078125	241.318344116211	1506.35009765625	-1142.794067382813	251.7624053955079	1528.427490234375	-1211.611450195313	311.0512084960938	1540.462768554688	-1118.393432617188	-331.7718200683594	1541.879028320313	-839.4084472656252	-175.1851806640625	1508.678344726563	-715.6726074218751	-138.9447784423828	1523.840209960938	-744.8277587890626	-108.1069259643555	1506.562866210938	-695.5139770507814	-34.86156463623048	1507.734130859375	-682.7556152343751	-25.74852180480958	1429.747680664063	-700.9202880859376	240.6199951171876	1511.955078125	-771.1194458007815	251.6453857421876	1529.178955078125	-703.4128417968751	320.3499755859376	1547.188842773438	-779.0438232421877	-180.2017669677735	1075.873901367188	-1085.451904296875	-182.6538848876953	1087.202392578125	-830.7724609375002	-352.4133300781251	1120.22802734375	-961.6080322265627	-364.8063354492188	1091.109008789063	-988.3646240234377	-362.7515563964844	1092.072387695313	-932.5838012695315	-246.6387023925782	752.4948120117189	-1134.539794921875	-224.7133026123047	670.9695434570314	-1128.21435546875	-176.471435546875	670.8294067382814	-1110.151611328125	-256.3841857910157	623.9865722656251	-1109.096923828125	-259.4140014648438	561.1120605468751	-1102.465454101563	-241.5027923583985	548.3116455078126	-983.3267822265627	-241.8080444335938	367.4065246582032	-1040.43017578125	-291.3734741210938	332.1975097656251	-1105.925170898438	-256.4727172851563	323.6908264160157	-1078.40576171875	-273.9642944335938	244.9915466308594	-1052.587036132813	-368.2291870117188	116.5334930419922	-1073.527099609375	-326.7022094726563	129.5840301513672	-1004.689880371094	-416.7609863281251	95.25823974609376	-1017.441101074219	-216.4108428955079	48.45418548583986	-1019.210388183594	-210.6431427001954	45.28195571899415	-1070.152221679688	-257.2872314453126	31.56418609619141	-1114.46435546875	-256.4145812988282	814.3281860351565	-778.1694946289065	-228.0492553710938	753.3984375000001	-772.9688720703127	-195.0523071289063	750.7330932617189	-776.5961914062502	-267.2237854003907	678.7523193359376	-789.0925292968752	-271.1619873046876	540.7032470703126	-794.4006347656252	-272.0531005859376	537.6821899414064	-915.8830566406252	-239.7702636718751	362.8685607910157	-818.0889282226565	-318.0724792480469	287.5456848144532	-777.029235839844	-272.6457214355469	287.7073669433594	-788.656921386719	-266.5427551269532	236.1214447021485	-817.8650512695315	-335.7577209472657	118.4872283935547	-785.1254882812502	-309.5961303710938	123.7111740112305	-864.7495117187502	-398.0711059570314	83.54227447509767	-843.9677734375002	-184.1692657470703	49.45348358154298	-843.1340942382815	-185.1543121337891	48.468318939209	-795.9251708984377	-228.472885131836	34.25397109985352	-750.5561523437501	
178	0.885	-238.3245697021485	1769.950561523438	-986.2749633789065	-391.5774230957032	1713.944702148438	-1048.684814453125	-384.2332458496095	1699.418823242188	-904.0430297851565	-425.5462036132814	1520.994873046875	-977.1203613281252	-366.9308166503907	1245.13330078125	-966.569030761719	-281.4224853515626	1523.368896484375	-986.7492675781252	-345.7707824707032	1548.9296875	-1130.606689453125	-172.0129699707032	1493.812133789063	-1253.096801757813	-146.7078399658203	1528.975219726563	-1225.13916015625	-102.9952468872071	1504.187255859375	-1257.375732421875	-41.72920608520509	1508.860229492188	-1255.373413085938	-30.67860412597657	1435.448486328125	-1232.022827148438	241.2787628173829	1506.28857421875	-1142.967407226563	251.8397521972657	1528.4453125	-1211.7744140625	310.9885864257813	1540.515869140625	-1118.54248046875	-331.7714538574219	1541.901977539063	-839.5541992187502	-175.125732421875	1508.626586914063	-715.7661743164064	-138.9344024658203	1523.809326171875	-744.9136352539064	-108.0655288696289	1506.52197265625	-695.6444091796876	-34.8077507019043	1507.722534179688	-682.8302001953126	-25.74028778076173	1429.775024414063	-701.0477294921876	240.5397949218751	1511.937744140625	-771.203552246094	251.6563415527344	1529.130249023438	-703.4929199218751	320.3112487792969	1547.133422851563	-779.1670532226565	-180.4266510009766	1075.487182617188	-1085.595947265625	-182.670639038086	1087.21630859375	-830.8230590820315	-352.4831848144532	1120.179077148438	-961.6589965820315	-364.8542785644532	1091.015991210938	-988.4524536132815	-362.8892822265626	1092.088745117188	-932.6125488281252	-246.6672058105469	752.5149536132814	-1134.606689453125	-224.6529541015626	670.9078979492189	-1128.251831054688	-176.4600372314453	670.8336791992189	-1110.227172851563	-257.0595703125001	624.3923950195314	-1108.762939453125	-259.2998657226563	561.0764160156251	-1102.552368164063	-241.5050048828126	548.3208007812501	-983.3538818359377	-241.7715911865235	367.4101562500001	-1040.470947265625	-291.3474121093751	332.2129211425782	-1105.932006835938	-256.4695129394532	323.6468505859376	-1078.399780273438	-273.9334106445313	244.9658203125001	-1052.645385742188	-368.2828063964844	116.1607360839844	-1073.608520507813	-326.6880493164063	129.5818939208985	-1004.698791503906	-416.7638244628907	95.23853302001955	-1017.452392578125	-216.4021453857422	48.48139572143556	-1019.160705566406	-210.6768646240235	45.26374053955079	-1070.1513671875	-257.2421569824219	31.55896759033204	-1114.466918945313	-256.3156127929688	814.3221435546877	-778.1841430664065	-227.9729309082032	753.4194946289064	-773.0027465820315	-195.0413970947266	750.7197265625001	-776.6104125976565	-267.1726074218751	678.7260742187501	-789.1767578125002	-271.1197204589844	540.7316284179689	-794.3968505859377	-272.0529479980469	537.6559448242189	-915.8713378906252	-239.7470245361329	362.8767395019532	-818.1582641601565	-318.0196533203126	287.5462646484376	-777.011413574219	-272.6191711425782	287.7388916015626	-788.6557617187502	-266.5332336425782	236.1344604492188	-817.920837402344	-335.7305297851563	118.4358596801758	-785.1225585937502	-309.1242980957032	123.4711837768555	-864.6924438476565	-398.1132812500001	83.53687286376955	-843.9614868164065	-184.1668548583985	49.44684219360353	-843.0696411132815	-185.0093536376953	48.4819679260254	-795.8725585937502	-228.4625244140626	34.26564025878907	-750.5844116210939	
179	0.89	-238.3973541259766	1769.916381835938	-986.2998657226565	-391.6280212402345	1713.891479492188	-1048.821044921875	-384.2217102050782	1699.419189453125	-904.1300048828127	-425.5988159179689	1521.01611328125	-977.278747558594	-367.0467224121094	1245.073364257813	-966.6710205078127	-281.4520874023438	1523.355712890625	-986.9055786132815	-345.6848754882813	1548.931274414063	-1130.7841796875	-171.9482421875	1493.906616210938	-1253.3310546875	-146.7013397216797	1529.035400390625	-1225.279663085938	-103.0501861572266	1504.189208984375	-1257.510009765625	-41.74394226074219	1508.853637695313	-1255.535522460938	-30.64306640625001	1435.476684570313	-1232.155395507813	241.2909851074219	1506.277465820313	-1143.135375976563	251.6873016357422	1528.496704101563	-1211.925170898438	311.0278930664063	1540.470458984375	-1118.708618164063	-331.7847595214844	1541.882446289063	-839.6623535156252	-175.1250152587891	1508.598388671875	-715.8813476562501	-138.8640594482422	1523.812866210938	-745.0357666015626	-108.1005401611328	1506.490966796875	-695.7125244140626	-34.81543731689454	1507.713745117188	-682.8863525390626	-25.74685096740723	1429.75537109375	-701.1008911132814	240.6185760498047	1511.896118164063	-771.2683715820315	251.6626434326172	1529.131103515625	-703.6005249023439	320.3376464843751	1547.14794921875	-779.2760009765627	-180.4498291015625	1075.490356445313	-1085.719604492188	-182.6746215820313	1087.129028320313	-830.9338378906252	-352.5192565917969	1120.112060546875	-961.7044067382815	-364.9364624023438	1091.022827148438	-988.4510498046877	-362.9023742675782	1092.022338867188	-932.724792480469	-246.6197814941407	752.4522705078126	-1134.62060546875	-224.6011352539063	670.8859863281251	-1128.318481445313	-176.4648742675782	670.8019409179689	-1110.276245117188	-256.8041381835938	624.2765502929689	-1109.261474609375	-259.3013000488282	561.0679321289064	-1102.581176757813	-241.3880310058594	548.3547363281251	-983.3964843750002	-241.7178955078126	367.3429260253907	-1040.543823242188	-291.4005126953126	332.2068481445313	-1105.991821289063	-256.3962707519532	323.6046447753907	-1078.467651367188	-273.8684692382813	244.9663848876954	-1052.641967773438	-368.2726745605469	116.542839050293	-1073.498901367188	-326.7026367187501	129.5682220458985	-1004.678039550781	-416.7698364257814	95.2283401489258	-1017.369873046875	-216.3991241455079	48.49064254760744	-1019.162475585938	-210.6565093994141	45.25952148437501	-1070.1435546875	-257.2856445312501	31.55961418151856	-1114.45361328125	-256.3033447265626	814.2915649414065	-778.2419433593752	-227.9506530761719	753.3528442382814	-773.0870361328127	-194.9884643554688	750.7691650390626	-776.6735839843752	-267.1287536621094	678.7164916992189	-789.1604003906252	-271.0624084472657	540.7466430664064	-794.4536132812502	-272.0123901367188	537.6348266601564	-915.8872680664065	-239.6868133544922	362.8532409667969	-818.2255859375002	-318.0071105957032	287.5486145019532	-777.0213012695315	-272.5368957519532	287.7331237792969	-788.6624145507815	-266.5256652832032	236.1074218750001	-817.906188964844	-335.7775268554688	118.4389801025391	-785.1031494140627	-309.1486206054688	123.4783096313477	-864.6854248046877	-398.1090393066407	83.50125885009767	-843.9521484375002	-184.2134704589844	49.45602035522462	-843.0908203125002	-185.1739807128907	48.48535156250001	-795.8677978515627	-228.505844116211	34.31940460205079	-750.5425415039064	
180	0.895	-238.4295959472657	1769.9482421875	-986.4822387695315	-391.5865478515626	1714.104858398438	-1048.857421875	-384.1873474121095	1699.376098632813	-904.2130126953127	-425.5773010253907	1520.97216796875	-977.3947753906252	-367.1023864746094	1245.027221679688	-966.7456665039065	-281.3149108886719	1523.324951171875	-987.152282714844	-345.7481994628907	1548.916870117188	-1130.99365234375	-172.0779266357422	1493.903198242188	-1253.540161132813	-146.7220458984375	1529.040283203125	-1225.421997070313	-103.0533599853516	1504.228515625	-1257.651489257813	-41.7230339050293	1508.854248046875	-1255.719116210938	-30.65563583374024	1435.514038085938	-1232.326904296875	241.2402648925782	1506.288940429688	-1143.3125	251.6910247802735	1528.4599609375	-1212.08251953125	311.0198974609376	1540.519897460938	-1118.847534179688	-331.7540893554688	1541.8974609375	-839.7884521484377	-175.1673278808594	1508.603759765625	-716.0122070312501	-138.8323974609375	1523.78271484375	-745.1089477539064	-108.0194549560547	1506.484375	-695.8242797851564	-34.77679824829102	1507.711669921875	-682.9384765625001	-25.72928619384766	1429.652465820313	-701.1533813476564	240.6264801025391	1511.961059570313	-771.357116699219	251.642807006836	1529.100952148438	-703.6683349609376	320.2798156738282	1546.753295898438	-778.985046386719	-180.2267303466797	1075.81298828125	-1085.756225585938	-182.6642150878907	1087.162231445313	-831.0010986328127	-352.5340576171876	1120.056640625	-961.7432861328127	-364.9428100585938	1090.980712890625	-988.5723876953127	-362.8801879882813	1092.015258789063	-932.7879028320315	-246.5154876708985	752.4536132812501	-1134.738525390625	-224.5874023437501	670.8789672851564	-1128.361572265625	-176.4657592773438	670.8522338867189	-1110.317993164063	-256.8143615722657	624.2697143554689	-1109.2978515625	-259.2527770996094	561.0319824218751	-1102.61181640625	-241.3254089355469	548.4921264648439	-983.5984497070315	-241.6724243164063	367.3198242187501	-1040.545654296875	-291.1481323242188	332.6817016601563	-1105.966186523438	-256.4077453613282	323.5530090332032	-1078.47509765625	-273.8957214355469	244.9497680664063	-1052.661987304688	-368.2595214843751	116.4497985839844	-1073.53369140625	-326.6853637695313	129.5554504394532	-1004.690063476563	-416.7650146484376	95.23330688476564	-1017.388854980469	-216.4215240478516	48.4802932739258	-1019.208435058594	-210.6901397705079	45.25588989257813	-1070.129150390625	-257.2865295410157	31.58946418762208	-1114.464233398438	-256.2402954101563	814.2830810546877	-778.260925292969	-227.9154357910157	753.3366088867189	-773.1459960937502	-194.9773406982422	750.7252197265626	-776.688415527344	-267.0950317382813	678.7256469726564	-789.2033691406252	-270.9789733886719	540.7728271484376	-794.5100097656252	-272.0111694335938	537.6312866210939	-915.940856933594	-239.6998291015626	362.8393554687501	-818.2335205078127	-317.9503173828126	287.5457153320313	-777.0461425781252	-272.5120544433594	287.7445678710938	-788.6611328125002	-266.5150756835938	236.0887298583985	-817.9176025390627	-335.7313537597657	118.3869934082032	-785.074157714844	-309.1378173828126	123.4037017822266	-864.6878051757815	-398.1373901367189	83.48870086669923	-843.966003417969	-184.1739501953125	49.44013595581056	-843.0861816406252	-185.124252319336	48.5127296447754	-795.8504028320315	-228.5230407714844	34.25587463378907	-750.5594482421876	
